PathFileType	4	(X/Y/Z)	testWalking.trc	
DataRate	CameraRate	NumFrames	NumMarkers	Units	OrigDataRate	OrigDataStartFrame	OrigNumFrames
120	120	14	28	mm	120	135	183
Frame#	Time	RSHO			LSHO			C7			RASI			LASI			SACR			RTHAP			RTHAD			RTHLD			RLEPI			RTIAP			RTIAD			RLMAL			RHEEL			RP1MT			RP5MT			RTOE			LTHAP			LTHAD			LTHLD			LLEPI			LTIAP			LTIAD			LLMAL			LHEEL			LP1MT			LP5MT			LTOE			
		X1	Y1	Z1	X2	Y2	Z2	X3	Y3	Z3	X4	Y4	Z4	X5	Y5	Z5	X6	Y6	Z6	X7	Y7	Z7	X8	Y8	Z8	X9	Y9	Z9	X10	Y10	Z10	X11	Y11	Z11	X12	Y12	Z12	X13	Y13	Z13	X14	Y14	Z14	X15	Y15	Z15	X16	Y16	Z16	X17	Y17	Z17	X18	Y18	Z18	X19	Y19	Z19	X20	Y20	Z20	X21	Y21	Z21	X22	Y22	Z22	X23	Y23	Z23	X24	Y24	Z24	X25	Y25	Z25	X26	Y26	Z26	X27	Y27	Z27	X28	Y28	Z28	

1	0.00000	190.21225	1433.77258	162.81279	112.25269	1439.20667	-201.03636	99.57013	1513.54150	-15.40948	191.85852	968.69232	134.20824	179.84647	981.99188	-139.09076	0.00000	1004.75330	0.00000	215.74794	658.43945	96.58980	192.61542	554.61926	114.86772	114.64465	585.53937	163.62041	91.34409	477.38766	153.51726	-2.66498	348.11926	79.13591	-104.74329	285.07690	75.06163	-251.31255	246.01912	112.84972	-299.53461	278.30243	55.76811	-273.81134	104.81674	147.07695	-248.16048	83.50053	28.85020	-225.16072	50.78746	80.37102	295.68481	702.15356	-87.79422	315.56049	626.84265	-83.43224	240.07727	605.77063	-151.72217	267.39044	511.85269	-133.07413	303.46399	357.26855	-50.74753	305.09894	248.76636	-47.28465	260.39316	95.11481	-86.57887	210.36649	53.62925	-30.86252	392.27911	35.35495	-124.95024	419.04749	46.69044	-6.05266	458.64001	52.44942	-40.34927	
2	0.00833	200.23514	1435.12952	162.51402	123.70967	1441.21191	-201.74397	110.69402	1515.30811	-16.00388	202.30719	970.64575	133.11955	190.73688	983.40894	-140.82191	11.06774	1006.22394	-1.59679	234.04935	661.63452	96.36348	213.51845	557.42615	114.69344	135.09573	586.60754	163.67787	114.49295	478.57697	153.88048	20.08652	349.90646	79.72350	-82.94978	288.48428	75.78358	-229.96635	251.71089	112.81059	-277.31335	285.16394	55.27934	-256.76318	111.68848	147.79228	-230.39201	89.05394	29.49518	-208.98357	56.03463	81.90538	305.16003	700.90692	-89.27990	323.65369	625.92975	-83.98716	247.88922	606.01666	-152.08774	274.03082	511.75443	-133.93042	307.83359	356.77429	-51.31732	307.86368	248.32828	-47.83293	260.65900	95.16444	-86.46177	210.49854	54.04747	-30.84923	392.35608	35.25573	-124.97450	419.15839	46.54234	-6.03188	458.80499	52.13284	-39.97910	
3	0.01667	210.46085	1437.37109	162.82399	135.02145	1443.40149	-202.46288	121.17250	1517.17224	-16.36891	212.94864	972.87848	132.23119	201.47873	984.70453	-142.26550	21.98038	1007.72150	-3.15010	252.06201	665.04956	96.13448	234.18448	560.60889	114.61794	154.31999	588.37567	163.91267	137.24780	480.46539	154.47807	42.83114	351.96603	80.34459	-60.81827	292.19711	76.28514	-206.73222	256.45245	112.44777	-255.95464	291.00775	54.88313	-236.31541	117.68804	148.04726	-209.31816	94.85196	29.99770	-187.82253	61.87609	82.26213	313.74048	700.23547	-90.54128	331.05426	625.59198	-84.40055	255.58051	606.20178	-152.69989	280.04312	511.69766	-134.81262	311.85345	356.26340	-52.16064	310.29858	247.85889	-48.52927	260.88443	95.19098	-86.49424	210.56854	54.45707	-31.00195	392.41034	35.14425	-124.98828	419.25659	46.41508	-6.02966	458.92505	51.88519	-39.74939	
4	0.02500	220.41652	1439.62207	163.21513	146.20979	1445.51172	-203.08911	131.41803	1519.01868	-16.71864	223.73828	975.26990	131.33315	212.18752	985.88568	-143.54808	30.38679	1009.59039	-4.08470	269.84259	668.84369	95.97566	254.64589	564.05963	114.66161	173.33566	590.47119	164.27055	159.82843	482.82230	155.06743	65.86946	354.39923	81.32430	-38.53876	295.95602	76.68733	-185.14320	261.94934	112.12502	-235.01958	295.75671	54.84790	-213.02147	122.66625	148.14513	-186.33928	99.97702	30.20888	-163.45001	67.79138	81.91039	321.64825	700.02277	-91.68353	338.06226	625.40894	-85.06376	262.27170	606.72314	-153.72699	285.46655	511.65265	-135.70642	315.59119	355.80463	-53.16953	312.48779	247.45644	-49.20377	261.12640	95.22047	-86.57785	210.63351	54.78617	-30.79088	392.43835	35.07922	-125.06049	419.35327	46.32666	-6.01181	459.03864	51.68861	-39.57977	
5	0.03333	229.37607	1440.29297	162.75887	157.44315	1447.60974	-203.70418	141.95157	1520.86499	-17.36676	234.59276	977.71576	130.53209	222.76416	987.17230	-144.98326	41.22059	1011.32068	-5.11717	287.41956	672.99487	95.77803	274.99738	567.88855	114.68590	192.65456	592.77136	164.70479	182.31860	485.54840	155.49092	89.09844	357.11923	82.35506	-15.91955	299.47797	76.97615	-165.20961	267.63638	112.36879	-213.73299	299.33313	55.08710	-187.70509	126.75059	148.40105	-162.19356	104.32356	30.13907	-137.63600	72.85676	81.10579	329.12015	699.94135	-92.59663	344.68036	625.04205	-86.29845	268.59085	607.39313	-154.83665	290.30872	511.59723	-136.54672	319.06720	355.46222	-54.10434	314.18744	247.15822	-49.83241	261.39874	95.30476	-86.64774	210.82590	55.20976	-30.43420	392.45776	35.02393	-125.15617	419.49036	46.23317	-6.03082	459.16608	51.46947	-39.47311	
6	0.04167	238.27769	1441.81628	162.92036	168.51930	1449.74084	-204.29768	152.24432	1522.74756	-17.99794	245.43823	980.20251	129.80367	233.26750	988.65894	-146.27574	52.49763	1013.00592	-6.03981	304.74673	677.42645	95.46156	295.22137	572.20331	114.64677	211.82982	595.45349	165.29268	204.59045	488.76062	155.85075	112.29971	360.04166	82.82704	7.29069	302.58063	77.33571	-142.87550	271.33945	112.06239	-191.81947	301.66681	55.39761	-161.10883	129.73688	148.56163	-137.05101	107.72713	29.90184	-111.17030	76.54858	80.11723	336.34894	699.81305	-93.23415	350.96124	624.42365	-87.64265	274.83765	607.96082	-155.68718	294.73032	511.47696	-137.27744	322.25745	355.11682	-54.86113	315.67017	246.89049	-50.37668	261.69751	95.43201	-86.76798	210.91809	55.72876	-30.48592	392.47717	34.95391	-125.23003	419.63391	46.11504	-6.09859	459.30750	51.20521	-39.48422	
7	0.05000	247.39326	1445.02307	164.08226	179.39186	1451.89709	-204.79659	162.25740	1524.65857	-18.45135	256.28131	982.60901	129.02791	243.80827	990.24268	-147.19568	63.24967	1014.77759	-6.83685	321.83902	682.10498	95.08989	315.33023	576.84821	114.71431	230.99004	598.41815	165.91750	226.63118	492.37540	156.19157	135.74046	362.97241	83.17210	30.78041	305.16980	77.45177	-119.06804	273.36386	111.88515	-169.26984	302.81647	55.79323	-134.06378	131.63809	148.59758	-111.08636	110.10809	29.63322	-84.10332	79.05403	79.34453	343.46008	699.56268	-93.71411	357.02167	623.58258	-88.76405	280.60486	608.52692	-156.37968	298.80017	511.37881	-138.00146	325.18588	354.75403	-55.60294	317.69061	246.65735	-50.75940	262.00781	95.60168	-86.87920	210.65442	56.21138	-31.05281	392.51031	34.84568	-125.27020	419.73596	46.00431	-6.15677	459.49719	51.03695	-39.46886	
8	0.05833	256.11423	1447.42151	164.66856	190.47383	1454.09155	-205.25668	172.20944	1526.63953	-18.90109	267.17352	984.91553	128.31627	254.29051	991.86383	-147.91907	73.96948	1016.60718	-7.61201	338.59528	687.03845	94.71861	335.30994	581.72693	114.95390	250.24820	601.67865	166.31923	248.56665	496.17291	156.40422	159.43556	365.84372	83.41420	54.59023	307.25983	77.31755	-94.79074	274.20746	112.04979	-146.17238	302.89410	56.00558	-107.02144	132.56363	148.54359	-84.19421	111.59402	29.49069	-56.29247	80.87643	79.01790	350.44995	698.90472	-94.23289	362.74951	622.62628	-90.03839	286.03116	609.07928	-156.94479	302.72058	511.35281	-138.68823	327.78528	354.52490	-56.18747	319.63663	246.53004	-51.11237	262.29498	95.82909	-86.91961	210.31766	56.56168	-31.75633	392.53705	34.74874	-125.29794	419.79926	45.93344	-6.18362	459.66132	50.91218	-39.44258	
9	0.06667	264.23120	1448.74756	164.60286	201.66948	1456.36292	-205.70813	181.97981	1528.62866	-19.36475	278.04947	987.14801	127.50456	264.67065	993.53241	-148.68388	84.58681	1018.40985	-8.36711	355.14691	692.12054	94.33681	355.38947	586.90753	115.12114	269.42255	605.11322	166.49583	270.40460	500.01962	156.47441	183.13589	368.66418	83.48677	79.06002	309.06244	77.64748	-70.39252	274.20618	112.11382	-122.77814	301.99585	55.75775	-79.91722	132.54794	148.49800	-56.26193	112.16872	29.40468	-27.61395	82.24993	79.21944	357.47070	698.07239	-94.74256	368.33160	621.55225	-90.82916	291.34598	609.54962	-157.38980	306.67932	511.28839	-139.16644	330.06277	354.44571	-56.47343	321.07529	246.52789	-51.47665	262.52411	96.03506	-87.04436	210.18076	56.88022	-32.16850	392.54706	34.70527	-125.35934	419.89111	45.89095	-6.23091	459.78162	50.77863	-39.52315	
10	0.07500	272.11215	1449.85083	164.38368	212.63361	1458.71716	-206.05495	191.73410	1530.52844	-19.82021	288.98364	989.30505	126.56490	274.97086	995.30035	-149.63908	95.09662	1020.17773	-9.09483	371.75702	697.17273	93.83678	375.51355	592.35492	115.13075	288.56943	608.59882	166.48940	292.06281	503.79886	156.47124	206.73068	371.35764	83.56108	103.68333	310.58347	78.04976	-45.99799	273.50299	112.00847	-99.11731	300.03647	55.24495	-52.42630	131.66634	148.47346	-27.49845	111.97826	29.29741	1.89236	83.05639	79.70335	365.24194	697.80890	-95.02620	373.72906	620.50989	-91.06950	296.63495	609.98608	-157.75728	310.50955	511.26373	-139.53717	332.17242	354.42206	-56.63104	322.37653	246.58363	-51.72348	262.72302	96.15907	-87.27467	210.33388	57.39200	-32.04361	392.56848	34.63901	-125.42987	420.01904	45.82767	-6.32690	459.96759	50.71390	-39.47523	
11	0.08333	280.16382	1451.08472	164.08263	223.27666	1461.02222	-206.41165	201.54552	1532.32153	-20.29007	300.08972	991.46771	125.57161	285.13855	997.12500	-150.67755	105.56017	1021.91870	-9.73924	388.21515	702.26324	93.27156	395.04370	597.83044	115.11629	307.70157	612.27747	166.50511	313.40985	507.47974	156.44902	230.20203	373.99295	83.39421	128.18384	311.68454	78.08406	-21.30925	271.93378	111.77092	-75.10959	296.93918	54.76756	-24.14200	130.08594	148.43581	2.08264	111.09426	29.36792	32.17130	83.27110	80.21550	372.52014	697.79565	-95.25416	378.74280	619.73505	-91.50419	301.79602	610.46271	-158.02666	313.77396	511.51154	-139.94095	334.11377	354.38812	-56.73669	323.57019	246.66324	-51.84433	262.93454	96.27161	-87.37821	210.56358	57.93256	-31.77969	392.66510	34.50352	-125.40062	420.13147	45.72137	-6.41972	460.06616	50.47185	-39.45020	
12	0.09167	288.14120	1452.42505	163.77278	234.04193	1463.21692	-206.84869	211.30786	1534.00244	-20.78683	310.68466	993.69287	123.50789	295.28244	998.97797	-151.63113	115.99764	1023.58002	-10.25568	404.84698	707.20282	92.61238	413.48108	603.16150	114.91499	326.34479	616.03162	166.66655	334.33142	511.16364	156.36009	253.58577	376.56253	83.01439	152.71719	312.34003	77.82976	3.72180	269.51816	111.22585	-50.86645	292.76752	54.37131	5.03416	128.02473	148.68346	32.46657	109.52599	29.54121	63.26012	82.89082	80.58736	378.13062	697.43872	-95.69164	383.76538	619.10858	-91.57502	306.79773	610.97668	-158.24265	316.74615	511.83115	-140.32251	335.87268	354.34937	-56.84431	324.69910	246.70409	-51.91264	263.11755	96.42345	-87.38157	210.67937	58.37113	-31.66763	392.78284	34.38863	-125.34566	420.26117	45.59497	-6.47379	460.04260	50.05940	-39.67494	
13	0.10000	295.90784	1453.83008	163.68532	245.21991	1465.31531	-207.17126	221.02884	1535.59509	-21.26740	320.67487	995.89990	120.48253	306.03070	1000.93933	-152.47083	126.38724	1025.14368	-10.65086	421.35840	711.80511	91.96620	431.45020	608.48828	114.42702	344.48474	619.64990	166.66469	354.90472	514.80438	156.10478	276.79959	378.97693	82.51009	177.24507	312.53442	77.13063	29.09581	266.36993	110.60884	-26.47851	287.52667	53.86703	35.31528	125.42113	148.99098	63.43314	107.30486	29.62985	95.25108	81.98748	80.72920	383.83411	697.06128	-96.11205	388.67322	618.49823	-91.26874	311.78073	611.42365	-158.47638	320.10260	511.89639	-140.53662	337.56415	354.30533	-56.98936	325.85199	246.68176	-51.97954	263.28177	96.61678	-87.37011	210.76877	58.76928	-31.48410	392.75549	34.40814	-125.42980	420.37427	45.49010	-6.50261	460.11145	49.77392	-39.86198	
14	0.10833	303.93213	1455.27087	163.73756	256.10175	1467.32849	-207.54842	230.67348	1537.10974	-21.69449	331.13110	997.93713	118.41295	316.38025	1002.81097	-153.50102	136.72963	1026.63635	-10.97403	436.68878	716.73224	91.40572	449.76001	613.95160	113.94557	362.25580	623.22430	166.54665	375.08911	518.40576	155.74458	299.79153	381.19498	81.82216	201.62178	312.33096	75.92876	54.99581	262.36276	110.34645	-1.68319	281.09842	53.24336	66.91999	122.07468	148.82796	94.99438	104.46567	29.63297	128.18633	80.70540	80.71458	389.99261	696.81171	-96.44128	393.12909	617.81213	-91.16556	316.69122	611.79529	-158.63387	323.26083	511.94162	-140.57291	339.29541	354.26675	-57.09914	326.94003	246.63019	-52.08510	263.47174	96.85522	-87.20815	210.91855	59.12165	-31.16306	392.68011	34.46023	-125.53967	420.55139	45.41630	-6.38124	460.19714	49.61477	-40.07620	
